<?xml version="1.0" ?><svg viewBox="0 0 32 32" xmlns="http://www.w3.org/2000/svg"><defs><style>.cls-1{fill:none;stroke:#000;stroke-linecap:round;stroke-linejoin:round;stroke-width:2px;}</style></defs><title/><g data-name="56-light" id="_56-light"><path class="cls-1" d="M28,13h-.39a11.91,11.91,0,0,0-1.28-3.09l.28-.28a3,3,0,0,0-4.24-4.24l-.28.28A11.91,11.91,0,0,0,19,4.39V4a3,3,0,0,0-6,0v.39A11.91,11.91,0,0,0,9.91,5.67l-.28-.28A3,3,0,0,0,5.39,9.64l.28.28A11.91,11.91,0,0,0,4.39,13H4a3,3,0,0,0,0,6h.39a11.91,11.91,0,0,0,1.28,3.09l-.28.28a3,3,0,0,0,4.24,4.24l.28-.28A11.91,11.91,0,0,0,13,27.61V28a3,3,0,0,0,6,0v-.39a11.91,11.91,0,0,0,3.09-1.28l.28.28a3,3,0,0,0,4.24-4.24l-.28-.28A11.91,11.91,0,0,0,27.61,19H28a3,3,0,0,0,0-6Z"/><circle class="cls-1" cx="16" cy="16" r="8"/></g></svg>